:version 1.10
:name ASF
:units
  mass 1
  length 1
  angle deg
:documentation
  ASF file generated by Kaydara
:root
  axis xyz
  order  tx ty tz rx ry rz
  position 0 0 0
  orientation 0 0 0
:bonedata
  begin
    id 1
    name RightUpLegDummy
    direction -0.718183 -0.695806 0.00816078
    length 4.904
    axis 0 0 0 xyz
  end
  begin
    id 2
    name RightUpLeg
    direction 3.53989e-006 -0.995788 0.0916897
    length 17.4976
    axis -3.49089 -0.000906621 0.000287158 xyz
    dof rx ry rz
  end
  begin
    id 3
    name RightLeg
    direction 0.00371093 -0.995096 -0.0988418
    length 16.5821
    axis 3.68512 0.0193738 -0.131023 xyz
    dof rx ry rz
  end
  begin
    id 4
    name RightFoot
    direction 0.000791514 -0.46099 0.887405
    length 3.77069
    axis 4.84075e-005 -0.120479 -0.188788 xyz
    dof rx ry rz
  end
  begin
    id 5
    name RightToes
    direction 0.00124746 -0.014064 0.9999
    length 3.85082
    axis 0.00048216 0.542163 -0.142577 xyz
    dof rx ry rz
  end
  begin
    id 6
    name SpineDummy
    direction 8.3039e-015 1 4.57515e-016
    length 4.6813
    axis 0 0 0 xyz
  end
  begin
    id 7
    name Spine
    direction -4.63632e-008 0.999988 0.00495137
    length 10.1015
    axis -0.00138897 0.000121419 3.25764e-006 xyz
    dof rx ry rz
  end
  begin
    id 8
    name Spine1
    direction 0 0 0
    length 0
    axis -0.00138896 0.000121452 2.39764e-006 xyz
    dof rx ry rz
  end
  begin
    id 9
    name HEadDummy
    direction -3.91456e-008 0.999999 0.00127422
    length 3.43865
    axis -0.00138896 0.000121452 2.39764e-006 xyz
  end
  begin
    id 10
    name HEad
    direction -0.0222688 0.980941 0.193023
    length 5.12695
    axis -0.00138895 0.000121452 2.39764e-006 xyz
    dof rx ry rz
  end
  begin
    id 11
    name LeftShoulder1Dummy
    direction 0.998891 -0.0402508 -0.0244456
    length 3.5433
    axis -0.00138896 0.000121452 2.39764e-006 xyz
  end
  begin
    id 12
    name LeftShoulder1
    direction 0.99951 -0.000327743 0.0313091
    length 4.05031
    axis -0.00138896 0.000121452 2.39764e-006 xyz
    dof rx ry rz
  end
  begin
    id 13
    name LeftArm
    direction 0.998561 -0.00100054 -0.0536182
    length 10.3537
    axis -23.1894 0.134784 0.96751 xyz
    dof rx ry rz
  end
  begin
    id 14
    name LeftForeArm
    direction 0.998903 0.00866434 0.046012
    length 8.70632
    axis -9.91835 -0.06569 -0.177792 xyz
    dof rx ry rz
  end
  begin
    id 15
    name LeftHand
    direction 0.992938 -0.0411636 0.11126
    length 5.32135
    axis -0.00960227 -0.00340091 0.185174 xyz
    dof rx ry rz
  end
  begin
    id 16
    name RightShoulderDummy
    direction -0.998891 -0.0402509 -0.0244414
    length 3.5433
    axis -0.00138896 0.000121452 2.39764e-006 xyz
  end
  begin
    id 17
    name RightShoulder
    direction -0.99951 -0.000327827 0.0313133
    length 4.05031
    axis 0.215806 0.000203644 -0.00680151 xyz
    dof rx ry rz
  end
  begin
    id 18
    name RightArm
    direction -0.998573 -0.000999583 -0.053403
    length 10.3947
    axis -23.2009 -0.134239 -0.9641 xyz
    dof rx ry rz
  end
  begin
    id 19
    name RightForeArm
    direction -0.998898 0.00868026 0.0461306
    length 8.68355
    axis -9.92322 0.0658061 0.178869 xyz
    dof rx ry rz
  end
  begin
    id 20
    name RightHand
    direction -0.992843 -0.0414603 0.112003
    length 5.28593
    axis -0.00960634 0.00330671 -0.185226 xyz
    dof rx ry rz
  end
  begin
    id 21
    name LeftUpLegDummy
    direction 0.718183 -0.695806 0.00816078
    length 4.904
    axis 0 0 0 xyz
  end
  begin
    id 22
    name LeftUpLeg
    direction -6.8115e-006 -0.995793 0.0916336
    length 17.4976
    axis -3.48766 0.00143441 -0.000523914 xyz
    dof rx ry rz
  end
  begin
    id 23
    name LeftLeg
    direction -0.00601357 -0.995091 -0.0987824
    length 16.5821
    axis 3.68177 -0.00654038 -0.00028478 xyz
    dof rx ry rz
  end
  begin
    id 24
    name LeftFoot
    direction -0.00417578 -0.460984 0.887399
    length 3.77069
    axis 1.87232e-006 4.66002e-005 -8.1837e-006 xyz
    dof rx ry rz
  end
  begin
    id 25
    name LeftToes
    direction 0.00818058 -0.00485161 0.999955
    length 3.85048
    axis 1.06246e-005 4.65855e-005 -8.18502e-006 xyz
    dof rx ry rz
  end
:hierarchy
  begin
    root RightUpLegDummy SpineDummy LeftUpLegDummy
    RightUpLegDummy RightUpLeg
    RightUpLeg RightLeg
    RightLeg RightFoot
    RightFoot RightToes
    SpineDummy Spine
    Spine Spine1
    Spine1 HEadDummy LeftShoulder1Dummy RightShoulderDummy
    HEadDummy HEad
    LeftShoulder1Dummy LeftShoulder1
    LeftShoulder1 LeftArm
    LeftArm LeftForeArm
    LeftForeArm LeftHand
    RightShoulderDummy RightShoulder
    RightShoulder RightArm
    RightArm RightForeArm
    RightForeArm RightHand
    LeftUpLegDummy LeftUpLeg
    LeftUpLeg LeftLeg
    LeftLeg LeftFoot
    LeftFoot LeftToes
  end

:SAMPLES-PER-SECOND 30
:FRAME-RANGE 1-1086
:FULLY-SPECIFIED
:DEGREES
1
root  66.8869 39.9973 -95.5557 -178.876 -51.4262 -177.415
RightUpLeg  -7.56971 -3.58385 -4.23732
RightLeg  9.86639 -0.367408 -0.352186
RightFoot  -5.23955 -0.428454 7.35813
RightToes  1.21801e-010 1.2921e-014 -6.02303e-014
Spine  -8.2494 -2.89945 -2.12988
Spine1  8.70544 -2.55131 -2.08868
HEad  1.30213 -33.315 7.16629
LeftShoulder1  1.02174 -0.277226 -22.4524
LeftArm  -1.95233 6.56561 -47.9227
LeftForeArm  31.8203 2.12809 -12.8799
LeftHand  -0.0275772 5.30607 3.97671
RightShoulder  1.25503 0.450569 27.3634
RightArm  -24.3285 -0.455591 50.4765
RightForeArm  71.4666 -5.37084 4.25804
RightHand  0.112891 -6.3869 -15.1657
LeftUpLeg  -5.12203 2.94406 -2.27591
LeftLeg  10.0068 11.8776 2.61626
LeftFoot  -8.41634 -0.00916415 2.3422
LeftToes  3.79492e-011 -8.60219e-011 1.56273e-011
2
root  66.8599 40.0661 -95.6239 -179.284 -51.5484 -177.177
RightUpLeg  -6.66072 -4.22401 -4.08179
RightLeg  8.64824 0.00605792 -0.107865
RightFoot  -4.27546 -0.43727 6.60241
RightToes  1.21801e-010 1.2921e-014 -6.02303e-014
Spine  -8.39996 -2.8132 -1.38831
Spine1  9.05338 -2.51319 -1.96003
HEad  1.22128 -30.8894 6.48908
LeftShoulder1  0.927329 0.135155 -23.224
LeftArm  -2.2392 6.09025 -47.4699
LeftForeArm  31.9501 1.74904 -12.7251
LeftHand  -0.0365197 4.99586 3.90407
RightShoulder  1.30534 0.587059 27.4977
RightArm  -23.9589 0.542996 50.3447
RightForeArm  70.8249 -5.42645 4.44104
RightHand  0.167394 -6.64904 -16.872
LeftUpLeg  -4.3993 2.94828 -2.03542
LeftLeg  9.21544 11.8446 2.42918
LeftFoot  -8.16648 -0.0185727 2.44327
LeftToes  3.79492e-011 -8.60219e-011 1.56273e-011
3
root  66.8291 40.0983 -95.7436 -179.524 -51.8516 -177.37
RightUpLeg  -5.75668 -5.21881 -4.34823
RightLeg  8.13417 0.621379 0.382207
RightFoot  -4.08838 -0.425291 6.26359
RightToes  1.21801e-010 1.2921e-014 -6.02303e-014
Spine  -8.48619 -2.82432 -1.64269
Spine1  9.43705 -2.7017 -1.13734
HEad  2.44896 -27.5784 4.96637
LeftShoulder1  0.939519 0.13019 -23.5807
LeftArm  -2.83456 5.94383 -47.825
LeftForeArm  31.905 2.05412 -12.5045
LeftHand  -0.0339169 5.09245 4.017
RightShoulder  1.33873 0.743829 27.0129
RightArm  -24.2211 1.26656 50.6584
RightForeArm  72.3991 -5.32245 4.1901
RightHand  0.150887 -6.65169 -15.4931
LeftUpLeg  -3.65757 2.68499 -2.15595
LeftLeg  8.83432 11.8404 2.57185
LeftFoot  -8.07528 -0.0158191 2.25919
LeftToes  3.79492e-011 -8.60219e-011 1.56273e-011
4
root  66.7607 40.1091 -95.801 -179.437 -51.6244 -177.25
RightUpLeg  -5.53261 -5.60622 -4.41957
RightLeg  7.51515 1.27238 0.745767
RightFoot  -3.82221 -0.427038 6.09563
RightToes  1.21801e-010 1.2921e-014 -6.02303e-014
Spine  -9.23124 -2.63237 -0.542796
Spine1  9.7593 -2.44398 -1.67376
HEad  3.86977 -23.414 3.84237
LeftShoulder1  1.01984 -0.187419 -23.1702
LeftArm  -3.77414 6.24129 -48.923
LeftForeArm  32.0765 2.59824 -12.199
LeftHand  -0.026811 5.33643 3.76657
RightShoulder  1.34552 0.801958 26.7002
RightArm  -24.2117 1.8182 50.8453
RightForeArm  72.3518 -5.31542 4.13623
RightHand  0.142653 -6.6003 -15.3669
LeftUpLeg  -3.64545 2.45501 -2.21196
LeftLeg  8.80336 12.2101 2.91499
LeftFoot  -8.21632 -5.70902e-005 1.81413
LeftToes  3.79492e-011 -8.60219e-011 1.56273e-011
5
root  66.7118 40.0916 -95.9666 -179.508 -52.2177 -177.459
RightUpLeg  -4.38275 -5.7455 -4.78313
RightLeg  6.37715 1.66098 0.979666
RightFoot  -4.01785 -0.418415 6.10355
RightToes  1.21801e-010 1.2921e-014 -6.02303e-014
Spine  -9.2609 -2.64695 -0.847456
Spine1  9.45068 -2.4838 -1.5318
HEad  5.73493 -19.5347 3.26607
LeftShoulder1  1.25276 -1.07944 -22.5113
LeftArm  -4.08362 6.98203 -49.8058
LeftForeArm  32.2061 2.98295 -12.1543
LeftHand  -0.0291968 5.24878 3.59073
RightShoulder  1.21114 0.287327 27.6615
RightArm  -23.2275 2.15446 49.859
RightForeArm  71.5015 -5.44392 4.70878
RightHand  0.131554 -6.48934 -15.6773
LeftUpLeg  -3.24937 2.55124 -2.14347
LeftLeg  8.93348 11.5342 2.79842
LeftFoot  -8.5287 0.00824834 1.75358
LeftToes  3.79492e-011 -8.60219e-011 1.56273e-011
6
root  66.6218 40.1176 -96.0908 -179.18 -52.5655 -178.124
RightUpLeg  -3.66457 -5.74753 -5.14545
RightLeg  5.95244 1.40106 0.793193
RightFoot  -4.05597 -0.407462 5.95989
RightToes  1.21801e-010 1.2921e-014 -6.02303e-014
Spine  -9.67282 -2.87382 -1.36325
Spine1  9.68513 -2.70677 -1.18896
HEad  6.99542 -15.1329 3.06745
LeftShoulder1  1.30206 -1.31149 -22.122
LeftArm  -3.97444 7.53209 -50.2936
LeftForeArm  32.2781 3.064 -12.2393
LeftHand  -0.0321548 5.31671 3.42932
RightShoulder  1.17963 0.113702 28.4698
RightArm  -22.2019 3.1823 49.323
RightForeArm  70.4309 -5.58069 5.28376
RightHand  0.167339 -6.70815 -16.2022
LeftUpLeg  -2.38065 2.10337 -2.61949
LeftLeg  8.00924 11.7412 2.80246
LeftFoot  -8.26023 0.0129972 1.66409
LeftToes  3.79492e-011 -8.60219e-011 1.56273e-011
7
root  66.5337 40.1135 -96.1699 -179.264 -52.5295 -177.977
RightUpLeg  -3.51505 -5.72789 -5.05581
RightLeg  5.91214 1.42194 0.81567
RightFoot  -4.10535 -0.380869 5.57581
RightToes  1.21801e-010 1.2921e-014 -6.02303e-014
Spine  -9.92507 -2.90178 -0.820879
Spine1  9.70369 -2.78451 -1.21116
HEad  7.82712 -10.992 2.74177
LeftShoulder1  1.22069 -0.950415 -22.6297
LeftArm  -3.69062 7.63064 -50.3688
LeftForeArm  32.2069 3.21289 -12.3776
LeftHand  -0.0282678 5.26807 3.63333
RightShoulder  1.25289 0.378362 27.9796
RightArm  -22.5013 3.63738 49.8633
RightForeArm  70.1165 -5.55717 5.06569
RightHand  0.159371 -6.65704 -16.1265
LeftUpLeg  -2.32151 2.09737 -2.53381
LeftLeg  8.20299 11.7857 2.90967
LeftFoot  -8.41203 0.0110589 1.64057
LeftToes  3.79492e-011 -8.60219e-011 1.56273e-011
8
root  66.4486 40.1093 -96.2693 -179.295 -52.5008 -177.939
RightUpLeg  -3.34632 -5.72823 -5.01272
RightLeg  5.97133 1.45789 0.831148
RightFoot  -4.23846 -0.369451 5.48236
RightToes  1.21801e-010 1.2921e-014 -6.02303e-014
Spine  -10.1539 -2.83798 -0.689311
Spine1  9.86253 -2.79949 -1.00526
HEad  8.81684 -7.95103 2.5111
LeftShoulder1  1.15167 -0.650095 -23.0858
LeftArm  -3.99352 7.77064 -50.5312
LeftForeArm  32.2154 3.52274 -12.2876
LeftHand  -0.0263515 5.28425 3.71799
RightShoulder  1.31759 0.631411 27.4309
RightArm  -22.5769 3.98463 50.5006
RightForeArm  69.7326 -5.55986 4.99113
RightHand  0.1552 -6.62856 -16.1041
LeftUpLeg  -2.21886 2.30743 -2.37263
LeftLeg  8.41368 11.5949 2.79308
LeftFoot  -8.59822 0.0166105 1.4949
LeftToes  3.79492e-011 -8.60219e-011 1.56273e-011
9
root  66.3556 40.0977 -96.3425 -179.062 -52.3421 -178.081
RightUpLeg  -3.4105 -5.87974 -5.12648
RightLeg  6.21385 1.69229 0.895908
RightFoot  -4.44882 -0.379177 5.78725
RightToes  1.21801e-010 1.2921e-014 -6.02303e-014
Spine  -10.4147 -2.66656 -0.491627
Spine1  9.91345 -2.60119 -1.18617
HEad  9.37743 -4.89162 2.77437
LeftShoulder1  1.14207 -0.615555 -23.098
LeftArm  -4.50089 8.23338 -50.8594
LeftForeArm  31.8102 3.85194 -12.1431
LeftHand  -0.0268496 5.35315 3.64059
RightShoulder  1.34319 0.715877 27.3667
RightArm  -22.428 4.49221 50.843
RightForeArm  69.7863 -5.56597 5.04099
RightHand  0.133132 -6.48069 -15.9321
LeftUpLeg  -2.11255 2.20011 -2.53762
LeftLeg  8.35397 11.9064 2.93413
LeftFoot  -8.70735 0.0199364 1.4104
LeftToes  3.79492e-011 -8.60219e-011 1.56273e-011
